HIERARCHY
ROOT pelvis
{
	OFFSET 0.000000 0.000000 0.000000
	CHANNELS 6 Xposition Yposition Zposition Zrotation Xrotation Yrotation
	JOINT lfemur
	{
		OFFSET 11.446000 0.000000 0.000000
		CHANNELS 3 Zrotation Xrotation Yrotation
		JOINT ltibia
		{
			OFFSET 0.000000 -42.030400 0.000000
			CHANNELS 3 Zrotation Xrotation Yrotation
			JOINT lfoot
			{
				OFFSET 0.000000 -39.930200 0.000000
				CHANNELS 3 Zrotation Xrotation Yrotation
				JOINT ltoes
				{
					OFFSET 0.000000 0.000000 11.775800
					CHANNELS 3 Zrotation Xrotation Yrotation
					End Site
					{
					    OFFSET 0.000000 0.000000 5.000000
					}
				}
			}
		}
	}
	JOINT rfemur
	{
		OFFSET -11.446000 0.000000 0.000000
		CHANNELS 3 Zrotation Xrotation Yrotation
		JOINT rtibia
		{
			OFFSET 0.000000 -42.030400 0.000000
			CHANNELS 3 Zrotation Xrotation Yrotation
			JOINT rfoot
			{
				OFFSET 0.000000 -39.930200 0.000000
				CHANNELS 3 Zrotation Xrotation Yrotation
				JOINT rtoes
				{
					OFFSET 0.000000 0.000000 11.775800
					CHANNELS 3 Zrotation Xrotation Yrotation
					End Site
					{
					    OFFSET 0.000000 0.000000 5.000000
					}
				}
			}
		}
	}
	JOINT thorax
	{
		OFFSET 0.000000 11.255600 -5.000000
		CHANNELS 3 Zrotation Xrotation Yrotation
		JOINT head
		{
			OFFSET 0.000000 43.799300 0.000000
			CHANNELS 3 Zrotation Xrotation Yrotation
			End Site
			{
			    OFFSET 0.000000 5.000000 0.000000
			}
		}
		JOINT lclavicle
		{
			OFFSET 0.000000 39.863000 0.000000
			CHANNELS 3 Zrotation Xrotation Yrotation
			JOINT lhumerus
			{
				OFFSET 17.380600 4.958300 0.000000
				CHANNELS 3 Zrotation Xrotation Yrotation
				JOINT lradius
				{
					OFFSET 0.000000 -27.561300 0.000000
					CHANNELS 3 Zrotation Xrotation Yrotation
					JOINT lhand
					{
						OFFSET 0.000000 -26.933000 0.000000
						CHANNELS 3 Zrotation Xrotation Yrotation
						End Site
						{
						    OFFSET 0.000000 -5.000000 0.000000
						}
					}
				}
			}
		}
		JOINT rclavicle
		{
			OFFSET 0.000000 39.863000 0.000000
			CHANNELS 3 Zrotation Xrotation Yrotation
			JOINT rhumerus
			{
				OFFSET -17.380600 4.958300 0.000000
				CHANNELS 3 Zrotation Xrotation Yrotation
				JOINT rradius
				{
					OFFSET 0.000000 -27.561300 0.000000
					CHANNELS 3 Zrotation Xrotation Yrotation
					JOINT rhand
					{
						OFFSET 0.000000 -26.933000 0.000000
						CHANNELS 3 Zrotation Xrotation Yrotation
						End Site
						{
						    OFFSET 0.000000 -5.000000 0.000000
						}
					}
				}
			}
		}
	}
}
MOTION
Frames:	16
Frame Time:	0.0333333
-8.095800 86.698000 -15.313400 12.018698 9.711513 -13.206528 8.040744 -18.678297 -9.215720 -0.000000 34.455620 -0.000000 0.000000 21.796563 -11.951551 -0.000000 -1.915386 -0.000000 -16.643121 -23.886632 -6.777125 -0.000000 33.391306 -0.000000 -0.000000 -3.271812 -1.689888 -0.000000 -29.580924 -0.000000 -5.338749 7.961124 -2.492588 15.274879 17.330325 -13.683457 -15.798018 0.000000 6.656968 38.872192 2.615987 -23.299989 -180.000037 -58.642669 167.407512 6.667663 -10.889931 0.000000 10.263825 0.000000 -2.782254 -56.185508 5.230491 -83.005995 180.000031 -76.163445 156.872473 -33.503026 7.934905 0.000000 
-7.676900 86.507700 -14.478100 11.812215 9.018236 -14.904332 8.464693 -17.929228 -8.716482 0.000000 35.855950 0.000000 0.000000 19.675683 -12.842341 -0.000000 -1.893523 0.000000 -16.563643 -23.332430 -5.876433 -0.000000 33.324309 -0.000000 0.000000 -3.563141 -0.719418 0.000000 -29.582935 -0.000000 -5.847230 7.794842 -3.251936 15.245612 18.059362 -12.207871 -15.532158 -0.000000 6.843280 39.482975 2.583967 -23.031843 180.000037 -58.521535 166.272298 6.254394 -11.410213 -0.000000 12.023290 0.000000 -4.744958 -55.652961 6.337266 -85.785723 -180.000030 -73.249346 160.663417 -35.298256 8.538851 0.000000 
-6.981100 86.283000 -13.686500 11.617857 8.551076 -16.428276 8.936455 -17.203180 -8.476980 0.000000 35.518012 -0.000000 0.000000 17.773626 -11.557065 -0.000000 -1.907383 0.000000 -16.880686 -23.249843 -5.469678 -0.000000 33.680913 0.000000 0.000000 -3.457936 0.638063 -0.000000 -29.586832 -0.000000 -5.999884 7.480178 -3.804502 15.018872 18.678178 -11.272005 -15.217967 0.000000 6.257206 39.764769 2.924456 -22.504086 180.000037 -58.346015 166.294252 5.865709 -11.156823 0.000000 13.143940 0.000000 -6.690063 -54.516573 7.422054 -88.642644 180.000036 -70.510435 163.821831 -35.722708 8.675204 0.000000 
-6.033400 85.951900 -12.967300 11.475741 8.014271 -18.016669 9.272197 -16.116391 -8.852053 0.000000 33.437912 -0.000000 0.000000 16.080227 -8.822402 -0.000000 -1.855919 0.000000 -17.353552 -23.176575 -4.804102 -0.000000 33.921223 -0.000000 0.000000 -3.698078 1.620942 -0.000000 -29.589103 -0.000000 -6.191974 7.521570 -4.719926 14.496021 19.201547 -9.821269 -15.206902 -0.000000 6.057145 40.056002 2.950717 -21.865126 -180.000032 -58.449383 165.804180 5.944326 -10.989441 0.000000 14.387805 -0.000000 -8.295417 -53.214587 7.235955 -90.539394 -180.000037 -67.984621 168.086379 -38.850056 9.733378 -0.000000 
-4.856600 85.550200 -12.225700 11.395769 7.473886 -20.109495 9.574373 -15.088941 -9.356674 0.000000 30.856609 -0.000000 0.000000 14.943920 -7.197393 -0.000000 -1.844447 -0.000000 -17.658658 -23.376720 -3.226859 -0.000000 34.123700 -0.000000 -0.000000 -4.075325 1.851582 -0.000000 -29.592088 -0.000000 -6.456479 7.288032 -4.981402 14.127591 19.952148 -8.694397 -15.146492 -0.000000 5.786702 40.152086 2.781470 -21.657302 180.000031 -58.925373 165.239823 5.817932 -10.712523 0.000000 15.587012 -0.000000 -9.259737 -51.902231 7.398602 -91.270579 180.000036 -66.276038 170.943982 -40.466046 10.276841 -0.000000 
-3.398600 85.062800 -11.434700 11.110571 6.622509 -22.438613 9.575580 -13.811638 -10.917902 -0.000000 28.736876 -0.000000 0.000000 13.008798 -6.329113 -0.000000 -1.831930 -0.000000 -18.152286 -23.714775 -1.705407 -0.000000 34.846908 -0.000000 0.000000 -4.046771 2.667053 -0.000000 -29.596667 0.000000 -6.660099 7.294180 -5.321250 13.683363 20.627845 -7.496769 -14.925946 -0.000000 5.470486 39.664160 3.220923 -21.288451 180.000037 -59.355634 164.190617 5.719135 -10.464074 -0.000000 16.644687 0.000000 -9.345620 -50.419719 7.603398 -90.574932 -180.000037 -65.178437 172.765688 -39.657840 10.002213 -0.000001 
-1.717200 84.483800 -10.480400 10.503105 5.637867 -24.842246 9.420510 -12.547128 -12.899802 0.000000 27.977816 -0.000000 0.000000 9.433122 -5.327706 -0.000000 -1.804288 -0.000000 -18.749490 -23.653198 -0.545520 -0.000000 35.082082 0.000000 -0.000000 -4.022824 4.077299 0.000000 -29.601629 0.000000 -6.536269 7.607272 -5.624140 13.363465 21.159005 -6.501679 -14.565264 0.000000 5.403694 38.915408 3.159219 -21.269582 -180.000033 -60.006010 163.319825 5.549364 -10.421361 0.000000 17.635152 0.000000 -8.951737 -49.153301 7.850243 -88.699290 -180.000037 -64.173051 172.221814 -38.522366 9.615825 -0.000001 
0.224000 83.856800 -9.505800 9.717879 4.828432 -27.189115 9.047384 -11.788008 -14.968095 0.000000 28.829131 -0.000000 -0.000000 5.513292 -4.535545 -0.000000 -1.773778 -0.000000 -19.170727 -23.747398 1.036236 -0.000000 35.142140 0.000000 0.000000 -3.579687 4.736227 -0.000000 -29.606424 -0.000000 -6.314449 7.680362 -5.911301 13.455170 21.802514 -6.151819 -13.891334 -0.000000 5.155481 38.184964 2.948185 -21.852836 -180.000036 -60.959183 162.765308 5.320018 -10.272271 0.000000 18.916419 0.000000 -8.066268 -48.230468 8.300268 -85.524164 -180.000037 -63.676640 174.198694 -37.815192 9.375194 0.000000 
2.423200 83.188700 -8.523200 8.782722 4.002116 -29.648902 8.209744 -11.164883 -17.334165 0.000000 31.251728 -0.000000 0.000000 1.203594 -4.105239 -0.000000 -1.751587 -0.000000 -19.499771 -23.814436 3.160443 -0.000000 34.889180 0.000000 -0.000000 -2.766270 5.093424 0.000000 -29.612534 -0.000000 -6.157265 8.011388 -6.221727 14.259778 22.173256 -6.126867 -12.670793 0.000000 4.724686 37.000631 2.821933 -22.770650 180.000036 -61.737203 162.537373 4.861237 -10.420741 -0.000000 20.359987 0.000000 -7.419653 -47.464406 8.016153 -81.746193 180.000037 -63.105722 174.418961 -36.906443 9.065914 0.000000 
4.897800 82.519200 -7.494300 7.429762 3.416998 -32.171781 7.412434 -10.814526 -19.001748 -0.000000 34.935192 -0.000000 0.000000 -2.975764 -4.166217 0.000000 -1.783537 0.000000 -19.468856 -23.576110 5.679150 0.000000 33.649740 -0.000000 0.000000 -1.384072 5.277784 -0.000000 -29.616635 -0.000000 -5.571295 8.681591 -6.796111 15.443643 22.102691 -5.820432 -11.503588 -0.000000 4.868500 35.928092 1.707835 -24.337138 180.000033 -62.891228 161.897744 4.943804 -10.331785 -0.000000 22.091760 0.000000 -6.827953 -46.779727 7.832970 -77.236840 -180.000037 -62.539506 175.363847 -35.923965 8.730447 -0.000000 
7.761600 81.998300 -6.534000 5.965990 3.217142 -35.044724 6.329174 -11.002715 -20.041066 0.000000 38.720900 0.000000 -0.000000 -6.797821 -3.445596 0.000000 -1.761852 0.000000 -19.604073 -23.214610 7.810674 -0.000000 30.731620 -0.000000 0.000000 1.418530 6.488209 -0.000000 -29.623595 -0.000000 -4.774753 9.379022 -7.404995 17.097407 22.058101 -5.327415 -10.152785 0.000000 3.938964 34.644325 1.606583 -25.543284 180.000034 -63.736199 162.040782 5.114054 -10.152706 0.000000 23.841745 0.000000 -6.503827 -46.159763 7.248989 -71.398233 180.000037 -62.532027 176.745784 -33.769283 7.994397 -0.000000 
10.976400 81.687300 -5.656700 4.654851 3.518773 -39.064555 5.089047 -11.832070 -20.044002 0.000000 42.991238 -0.000000 0.000000 -9.083110 -2.630518 0.000000 -1.759990 -0.000000 -19.598340 -23.572961 9.295279 0.000000 26.527166 0.000000 0.000000 6.389546 8.449580 -0.000000 -29.627239 -0.000000 -3.904907 10.135908 -7.867272 18.849402 21.541366 -4.417450 -8.639155 -0.000000 3.370746 33.065319 1.518753 -26.203533 180.000035 -64.622750 161.990194 5.132437 -10.071805 0.000000 25.700589 0.000000 -6.535760 -46.319105 5.377264 -64.219277 -180.000037 -63.050295 175.111877 -29.582480 6.577869 -0.000000 
14.515300 81.617600 -4.832000 3.413697 3.953331 -44.377452 3.904445 -12.485744 -19.144949 -0.000000 46.496058 -0.000000 0.000000 -10.731587 -1.834342 0.000000 -1.747696 0.000000 -19.076352 -24.804065 10.010392 0.000000 21.928880 -0.000000 -0.000000 14.100246 10.875215 -0.000000 -29.626454 0.000000 -3.069435 11.274136 -8.170988 20.279173 21.270202 -2.601757 -7.531930 -0.000000 3.140778 31.803098 1.854939 -25.978587 180.000035 -65.186200 161.887585 5.449906 -9.843661 0.000000 27.244334 -0.000000 -5.775091 -47.190065 2.990290 -55.892597 -180.000037 -64.626694 176.853024 -27.448510 5.851770 -0.000000 
18.238600 81.701600 -4.052500 2.565843 4.460705 -50.716127 2.417776 -12.947324 -19.255149 -0.000000 49.045492 -0.000000 -0.000000 -11.546065 -0.653284 0.000000 -1.720128 0.000000 -17.896265 -26.836247 9.154865 0.000000 17.396101 0.000000 -0.000000 22.821152 13.050319 0.000000 -29.613452 0.000000 -2.246852 12.322842 -7.659884 20.892985 20.811638 -1.284594 -7.305291 0.000000 3.367999 32.095802 1.641803 -25.833151 -180.000037 -65.534218 161.815679 5.356082 -10.044697 -0.000000 27.494991 0.000000 -4.563368 -47.379219 0.950009 -48.271484 -180.000037 -65.955679 178.182876 -24.313659 4.782864 -0.000000 
21.787300 81.734000 -3.251600 2.168808 4.679844 -56.979774 0.803134 -13.181846 -19.876046 -0.000000 50.362608 0.000000 0.000000 -12.132321 -0.065550 0.000000 -1.668430 0.000000 -15.940037 -28.862770 6.598136 -0.000000 14.913598 -0.000000 0.000000 25.839825 12.049222 0.000000 -29.594881 -0.000000 -1.857328 13.022765 -6.724289 20.738377 20.535000 -0.227793 -7.343545 0.000000 3.512616 33.171218 1.705203 -25.691255 180.000035 -65.615110 161.590151 5.277926 -10.358847 -0.000000 26.876229 -0.000000 -3.422666 -47.076196 -0.838139 -40.634815 180.000037 -66.864392 178.260595 -23.098860 4.370180 -0.000000 
25.042500 81.806400 -2.584700 2.567250 4.662961 -62.558411 -0.626535 -13.286917 -19.977600 -0.000000 49.665386 -0.000000 0.000000 -13.104268 0.092707 -0.000000 -1.635158 -0.000000 -13.413733 -31.527944 3.478017 -0.000000 17.926125 -0.000000 0.000000 19.928193 5.704476 0.000000 -29.594482 -0.000000 -1.928167 12.663129 -5.068520 20.022572 20.351748 -0.178041 -7.938920 0.000000 3.906507 35.114781 1.172608 -26.272238 180.000037 -66.036738 161.870728 5.456235 -10.428517 -0.000000 25.958370 0.000000 -2.621968 -46.907458 -1.585465 -33.652904 -180.000037 -66.677743 178.858413 -19.725711 3.226859 -0.000000 
